<svg width="284" height="115" viewBox="0 0 284 115" fill="none" xmlns="http://www.w3.org/2000/svg">
<mask id="path-1-inside-1_679_551" fill="white">
<path fill-rule="evenodd" clip-rule="evenodd" d="M52.5 0C23.5051 0 0 23.5051 0 52.5C0 77.7613 17.8413 98.8555 41.6105 103.869C43.9061 106.14 46.4807 110.363 46.0358 114.504C46.3007 114.016 46.8116 113.344 47.4245 112.538C48.9143 110.58 51.0064 107.829 51.6297 104.993C51.9193 104.998 52.2094 105 52.5 105H231.5C260.495 105 284 81.4949 284 52.5C284 23.5051 260.495 0 231.5 0H52.5Z"/>
</mask>
<path fill-rule="evenodd" clip-rule="evenodd" d="M52.5 0C23.5051 0 0 23.5051 0 52.5C0 77.7613 17.8413 98.8555 41.6105 103.869C43.9061 106.14 46.4807 110.363 46.0358 114.504C46.3007 114.016 46.8116 113.344 47.4245 112.538C48.9143 110.58 51.0064 107.829 51.6297 104.993C51.9193 104.998 52.2094 105 52.5 105H231.5C260.495 105 284 81.4949 284 52.5C284 23.5051 260.495 0 231.5 0H52.5Z" fill="white"/>
<path d="M41.6105 103.869L43.017 102.447C42.744 102.177 42.399 101.992 42.0233 101.912L41.6105 103.869ZM46.0358 114.504L44.0473 114.291C43.9453 115.241 44.5291 116.13 45.4412 116.414C46.3533 116.698 47.3389 116.297 47.7941 115.458L46.0358 114.504ZM47.4245 112.538L45.8326 111.328L45.8326 111.328L47.4245 112.538ZM51.6297 104.993L51.6623 102.993C50.7111 102.978 49.8806 103.634 49.6764 104.564L51.6297 104.993ZM2 52.5C2 24.6096 24.6096 2 52.5 2V-2C22.4005 -2 -2 22.4005 -2 52.5H2ZM42.0233 101.912C19.1602 97.0897 2 76.7965 2 52.5H-2C-2 78.726 16.5224 100.621 41.1977 105.826L42.0233 101.912ZM48.0244 114.718C48.5622 109.712 45.5177 104.921 43.017 102.447L40.204 105.291C42.2945 107.359 44.3992 111.015 44.0473 114.291L48.0244 114.718ZM45.8326 111.328C45.2666 112.072 44.6345 112.893 44.2776 113.551L47.7941 115.458C47.9669 115.139 48.3566 114.616 49.0163 113.749L45.8326 111.328ZM49.6764 104.564C49.1652 106.889 47.3874 109.283 45.8326 111.328L49.0163 113.749C50.4412 111.876 52.8476 108.769 53.5831 105.422L49.6764 104.564ZM52.5 103C52.2202 103 51.9409 102.998 51.6623 102.993L51.5972 106.993C51.8976 106.998 52.1985 107 52.5 107V103ZM231.5 103H52.5V107H231.5V103ZM282 52.5C282 80.3904 259.39 103 231.5 103V107C261.6 107 286 82.5995 286 52.5H282ZM231.5 2C259.39 2 282 24.6096 282 52.5H286C286 22.4005 261.6 -2 231.5 -2V2ZM52.5 2H231.5V-2H52.5V2Z" fill="#491700" mask="url(#path-1-inside-1_679_551)"/>
</svg>
