<svg width="23" height="23" viewBox="0 0 23 23" fill="none" xmlns="http://www.w3.org/2000/svg">
<path d="M11.5 2.19727C9.495 2.19954 7.57277 2.99703 6.15502 4.41478C4.73727 5.83253 3.93977 7.75476 3.9375 9.75977C3.9375 16.2309 10.8125 21.1181 11.1055 21.3227C11.2211 21.4036 11.3589 21.4471 11.5 21.4471C11.6411 21.4471 11.7789 21.4036 11.8945 21.3227C12.1875 21.1181 19.0625 16.2309 19.0625 9.75977C19.0602 7.75476 18.2627 5.83253 16.845 4.41478C15.4272 2.99703 13.505 2.19954 11.5 2.19727ZM11.5 7.00977C12.0439 7.00977 12.5756 7.17105 13.0278 7.47322C13.4801 7.7754 13.8325 8.20489 14.0407 8.70739C14.2488 9.20988 14.3033 9.76282 14.1972 10.2963C14.0911 10.8297 13.8291 11.3197 13.4445 11.7043C13.0599 12.0889 12.5699 12.3508 12.0365 12.4569C11.5031 12.563 10.9501 12.5086 10.4476 12.3004C9.94512 12.0923 9.51563 11.7398 9.21346 11.2876C8.91128 10.8353 8.75 10.3037 8.75 9.75977C8.75 9.03042 9.03973 8.33095 9.55546 7.81522C10.0712 7.2995 10.7707 7.00977 11.5 7.00977Z" fill="#59383B"/>
</svg>
