<svg width="25" height="25" viewBox="0 0 25 25" fill="none" xmlns="http://www.w3.org/2000/svg">
<path fill-rule="evenodd" clip-rule="evenodd" d="M16.4519 5C17.0368 5.00002 17.6101 5.16426 18.1077 5.47432C18.6052 5.78438 19.0073 6.22802 19.269 6.75553L20.7243 9.68953C20.9805 9.58365 21.2324 9.46929 21.4802 9.34647C21.7295 9.22094 22.0179 9.2004 22.2822 9.28936C22.5464 9.37832 22.7648 9.56949 22.8893 9.82082C23.0138 10.0722 23.0342 10.3631 22.9459 10.6295C22.8577 10.896 22.6682 11.1162 22.4189 11.2418C22.1665 11.355 21.9128 11.4652 21.6577 11.5721L22.6667 13.6082C22.8857 14.0497 22.9997 14.5366 22.9996 15.0302V17.7059C22.9995 18.1528 22.906 18.5947 22.7251 19.0026C22.5442 19.4106 22.2799 19.7755 21.9496 20.0734V21.4118C21.9496 21.833 21.7836 22.237 21.4883 22.5348C21.1929 22.8327 20.7923 23 20.3746 23C19.9569 23 19.5563 22.8327 19.2609 22.5348C18.9656 22.237 18.7996 21.833 18.7996 21.4118V20.8824H6.19991V21.4118C6.19991 21.833 6.03398 22.237 5.73862 22.5348C5.44325 22.8327 5.04265 23 4.62495 23C4.20724 23 3.80664 22.8327 3.51128 22.5348C3.21591 22.237 3.04998 21.833 3.04998 21.4118V20.0734C2.40529 19.4911 2 18.6461 2 17.7059V15.0292C2.0002 14.5363 2.11415 14.0501 2.33284 13.6093L3.33347 11.5891C3.08008 11.4818 2.82983 11.3664 2.58274 11.2428C2.33477 11.1157 2.14627 10.8953 2.05789 10.6293C1.9695 10.3633 1.98831 10.073 2.11025 9.82082C2.17184 9.69634 2.25715 9.58531 2.36131 9.49409C2.46548 9.40287 2.58644 9.33324 2.7173 9.28919C2.84816 9.24513 2.98635 9.22752 3.12396 9.23735C3.26158 9.24718 3.39592 9.28426 3.51932 9.34647C3.76781 9.47 4.01981 9.58435 4.2753 9.68953L5.73057 6.75659C5.99207 6.22888 6.39412 5.78502 6.89169 5.47477C7.38925 5.16452 7.96266 5.00012 8.54766 5H16.4519ZM7.77488 14.5294C7.35717 14.5294 6.95657 14.6967 6.66121 14.9946C6.36585 15.2924 6.19991 15.6964 6.19991 16.1176C6.19991 16.5389 6.36585 16.9428 6.66121 17.2407C6.95657 17.5386 7.35717 17.7059 7.77488 17.7059C8.19259 17.7059 8.59319 17.5386 8.88855 17.2407C9.18391 16.9428 9.34985 16.5389 9.34985 16.1176C9.34985 15.6964 9.18391 15.2924 8.88855 14.9946C8.59319 14.6967 8.19259 14.5294 7.77488 14.5294ZM17.2247 14.5294C16.807 14.5294 16.4064 14.6967 16.111 14.9946C15.8156 15.2924 15.6497 15.6964 15.6497 16.1176C15.6497 16.5389 15.8156 16.9428 16.111 17.2407C16.4064 17.5386 16.807 17.7059 17.2247 17.7059C17.6424 17.7059 18.043 17.5386 18.3384 17.2407C18.6337 16.9428 18.7996 16.5389 18.7996 16.1176C18.7996 15.6964 18.6337 15.2924 18.3384 14.9946C18.043 14.6967 17.6424 14.5294 17.2247 14.5294ZM16.4519 7.11765H8.54766C8.37484 7.11762 8.20469 7.16061 8.0523 7.24281C7.89991 7.325 7.77 7.44385 7.67408 7.58882L7.60898 7.70318L6.27551 10.3905C7.90088 10.8818 10.0911 11.3529 12.4998 11.3529C14.7488 11.3529 16.8057 10.9421 18.3902 10.4879L18.723 10.3905L17.3906 7.70318C17.3133 7.54733 17.1991 7.41313 17.0581 7.31247C16.917 7.21181 16.7535 7.1478 16.5821 7.12612L16.4529 7.11765H16.4519Z" fill="#59383B"/>
</svg>
