<svg width="20" height="20" viewBox="0 0 20 20" fill="none" xmlns="http://www.w3.org/2000/svg">
<path d="M10.7986 4.56597C10.7986 3.39472 11.5961 2.22222 12.8298 2.22222C14.0636 2.22222 14.8611 3.39472 14.8611 4.56597C14.8611 5.73722 14.0636 6.90972 12.8298 6.90972C11.5961 6.90972 10.7986 5.73722 10.7986 4.56597ZM3.14233 5.03472C1.90858 5.03472 1.11108 6.20722 1.11108 7.37847C1.11108 8.54972 1.90858 9.72222 3.14233 9.72222C4.37608 9.72222 5.17358 8.54972 5.17358 7.37847C5.17358 6.20722 4.37608 5.03472 3.14233 5.03472ZM17.2048 5.03472C15.9711 5.03472 15.1736 6.20722 15.1736 7.37847C15.1736 8.54972 15.9711 9.72222 17.2048 9.72222C18.4386 9.72222 19.2361 8.54972 19.2361 7.37847C19.2361 6.20722 18.4386 5.03472 17.2048 5.03472ZM7.51733 2.22222C6.28358 2.22222 5.48608 3.39472 5.48608 4.56597C5.48608 5.73722 6.28358 6.90972 7.51733 6.90972C8.75108 6.90972 9.54858 5.73722 9.54858 4.56597C9.54858 3.39472 8.75108 2.22222 7.51733 2.22222ZM10.1736 8.47222C8.51598 8.47222 6.92627 9.1307 5.75417 10.3028C4.58206 11.4749 3.92358 13.0646 3.92358 14.7222C3.92358 16.3447 5.43858 17.2222 6.77983 17.2222H13.5673C14.9086 17.2222 16.4236 16.3447 16.4236 14.7222C16.4236 13.0646 15.7651 11.4749 14.593 10.3028C13.4209 9.1307 11.8312 8.47222 10.1736 8.47222Z" fill="#491700"/>
</svg>
