<svg width="24" height="24" viewBox="0 0 24 24" fill="none" xmlns="http://www.w3.org/2000/svg">
<path d="M12.8306 18.6552L18.6591 12.8267C18.7652 12.7158 18.8484 12.5851 18.9039 12.442C19.0205 12.1582 19.0205 11.8398 18.9039 11.556C18.8484 11.4129 18.7652 11.2822 18.6591 11.1714L12.8306 5.34282C12.7219 5.23414 12.5928 5.14792 12.4508 5.0891C12.3088 5.03028 12.1566 5 12.0029 5C11.6925 5 11.3948 5.12332 11.1753 5.34282C10.9558 5.56233 10.8324 5.86005 10.8324 6.17048C10.8324 6.48091 10.9558 6.77862 11.1753 6.99813L15.0221 10.8333H6.17438C5.86522 10.8333 5.56871 10.9561 5.3501 11.1747C5.13149 11.3933 5.00868 11.6898 5.00868 11.999C5.00868 12.3082 5.13149 12.6047 5.3501 12.8233C5.56871 13.0419 5.86522 13.1647 6.17438 13.1647H15.0221L11.1753 16.9999C11.066 17.1083 10.9793 17.2372 10.9201 17.3792C10.8609 17.5213 10.8304 17.6736 10.8304 17.8275C10.8304 17.9814 10.8609 18.1338 10.9201 18.2758C10.9793 18.4179 11.066 18.5468 11.1753 18.6552C11.2836 18.7644 11.4126 18.8512 11.5546 18.9103C11.6967 18.9695 11.849 19 12.0029 19C12.1568 19 12.3092 18.9695 12.4512 18.9103C12.5933 18.8512 12.7222 18.7644 12.8306 18.6552Z" fill="#491700"/>
</svg>
