<svg width="35" height="33" viewBox="0 0 35 33" fill="none" xmlns="http://www.w3.org/2000/svg">
<path d="M27.9705 8.41173C28.1586 8.23021 28.3087 8.01304 28.412 7.7729C28.5153 7.53275 28.5697 7.27444 28.5721 7.01303C28.5745 6.75162 28.5248 6.49236 28.4259 6.25036C28.327 6.00836 28.181 5.78848 27.9962 5.60354C27.8114 5.4186 27.5917 5.27231 27.3498 5.17321C27.1079 5.0741 26.8487 5.02417 26.5873 5.02632C26.3258 5.02846 26.0675 5.08265 25.8272 5.18572C25.587 5.28878 25.3697 5.43866 25.188 5.62661L17.2972 13.5147L9.40911 5.62661C9.22887 5.43318 9.01152 5.27804 8.77002 5.17043C8.52852 5.06283 8.26783 5.00497 8.00348 5.00031C7.73914 4.99564 7.47656 5.04427 7.23142 5.14329C6.98627 5.24231 6.76358 5.38969 6.57663 5.57663C6.38969 5.76358 6.24231 5.98627 6.14329 6.23141C6.04427 6.47656 5.99564 6.73914 6.00031 7.00348C6.00497 7.26783 6.06283 7.52852 6.17043 7.77002C6.27804 8.01152 6.43318 8.22887 6.62661 8.40911L14.5095 16.2999L6.62136 24.188C6.2736 24.5612 6.08428 25.0548 6.09327 25.5649C6.10227 26.0749 6.30889 26.5615 6.6696 26.9222C7.03031 27.2829 7.51695 27.4896 8.02699 27.4986C8.53703 27.5076 9.03065 27.3182 9.40386 26.9705L17.2972 19.0824L25.1854 26.9731C25.5586 27.3209 26.0522 27.5102 26.5622 27.5012C27.0723 27.4922 27.5589 27.2856 27.9196 26.9249C28.2803 26.5642 28.4869 26.0775 28.4959 25.5675C28.5049 25.0574 28.3156 24.5638 27.9679 24.1906L20.085 16.2999L27.9705 8.41173Z" fill="#FF5817"/>
</svg>
