<svg width="44" height="45" viewBox="0 0 44 45" fill="none" xmlns="http://www.w3.org/2000/svg">
<circle cx="22.5" cy="22.6445" r="21" fill="white"/>
<path d="M22.5014 18.4445C21.3875 18.4445 20.3192 18.887 19.5316 19.6747C18.7439 20.4623 18.3014 21.5306 18.3014 22.6445C18.3014 23.7584 18.7439 24.8267 19.5316 25.6144C20.3192 26.402 21.3875 26.8445 22.5014 26.8445C23.6153 26.8445 24.6836 26.402 25.4712 25.6144C26.2589 24.8267 26.7014 23.7584 26.7014 22.6445C26.7014 21.5306 26.2589 20.4623 25.4712 19.6747C24.6836 18.887 23.6153 18.4445 22.5014 18.4445ZM22.5014 15.6445C24.3579 15.6445 26.1384 16.382 27.4511 17.6948C28.7639 19.0075 29.5014 20.788 29.5014 22.6445C29.5014 24.501 28.7639 26.2815 27.4511 27.5943C26.1384 28.907 24.3579 29.6445 22.5014 29.6445C20.6449 29.6445 18.8644 28.907 17.5517 27.5943C16.2389 26.2815 15.5014 24.501 15.5014 22.6445C15.5014 20.788 16.2389 19.0075 17.5517 17.6948C18.8644 16.382 20.6449 15.6445 22.5014 15.6445ZM31.6014 15.2945C31.6014 15.7587 31.417 16.2038 31.0888 16.532C30.7606 16.8602 30.3155 17.0445 29.8514 17.0445C29.3873 17.0445 28.9422 16.8602 28.614 16.532C28.2858 16.2038 28.1014 15.7587 28.1014 15.2945C28.1014 14.8304 28.2858 14.3853 28.614 14.0571C28.9422 13.7289 29.3873 13.5445 29.8514 13.5445C30.3155 13.5445 30.7606 13.7289 31.0888 14.0571C31.417 14.3853 31.6014 14.8304 31.6014 15.2945ZM22.5014 11.4445C19.0378 11.4445 18.4722 11.4543 16.8608 11.5257C15.7632 11.5775 15.0268 11.7245 14.3436 11.9905C13.7722 12.201 13.2554 12.5374 12.8316 12.9747C12.3938 13.3984 12.0569 13.9152 11.846 14.4867C11.58 15.1727 11.433 15.9077 11.3826 17.0039C11.3098 18.5495 11.3 19.0899 11.3 22.6445C11.3 26.1095 11.3098 26.6737 11.3812 28.2851C11.433 29.3813 11.58 30.1191 11.8446 30.8009C12.0826 31.4099 12.3626 31.8481 12.8274 32.3129C13.2992 32.7833 13.7374 33.0647 14.3394 33.2971C15.031 33.5645 15.7674 33.7129 16.8594 33.7633C18.405 33.8361 18.9454 33.8445 22.5 33.8445C25.965 33.8445 26.5292 33.8347 28.1406 33.7633C29.2354 33.7115 29.9718 33.5645 30.6564 33.2999C31.2278 33.0894 31.7446 32.753 32.1684 32.3157C32.6402 31.8453 32.9216 31.4071 33.154 30.8037C33.42 30.1149 33.5684 29.3785 33.6188 28.2837C33.6916 26.7395 33.7 26.1977 33.7 22.6445C33.7 19.1809 33.6902 18.6153 33.6188 17.0039C33.567 15.9091 33.4186 15.1699 33.154 14.4867C32.9435 13.9153 32.6071 13.3985 32.1698 12.9747C31.7461 12.5369 31.2294 12.2001 30.6578 11.9891C29.9718 11.7231 29.2354 11.5761 28.1406 11.5257C26.5964 11.4529 26.056 11.4445 22.5 11.4445M22.5 8.64453C26.3038 8.64453 26.7784 8.65853 28.2722 8.72853C29.7618 8.79853 30.7782 9.03233 31.67 9.37953C32.594 9.73513 33.3724 10.2167 34.1508 10.9937C34.863 11.6934 35.4139 12.54 35.765 13.4745C36.1108 14.3663 36.346 15.3827 36.416 16.8737C36.4818 18.3661 36.5 18.8407 36.5 22.6445C36.5 26.4483 36.486 26.9229 36.416 28.4153C36.346 29.9077 36.1108 30.9213 35.765 31.8145C35.4139 32.7491 34.863 33.5957 34.1508 34.2953C33.4512 35.0075 32.6045 35.5584 31.67 35.9095C30.7782 36.2553 29.7618 36.4905 28.2722 36.5605C26.7784 36.6263 26.3038 36.6445 22.5 36.6445C18.6962 36.6445 18.2216 36.6305 16.7278 36.5605C15.2382 36.4905 14.2232 36.2553 13.33 35.9095C12.3955 35.5584 11.5488 35.0075 10.8492 34.2953C10.137 33.5957 9.58614 32.7491 9.235 31.8145C8.8878 30.9227 8.654 29.9063 8.584 28.4153C8.5168 26.9229 8.5 26.4483 8.5 22.6445C8.5 18.8407 8.514 18.3661 8.584 16.8737C8.654 15.3813 8.8878 14.3677 9.235 13.4745C9.58614 12.54 10.137 11.6934 10.8492 10.9937C11.5488 10.2816 12.3955 9.73067 13.33 9.37953C14.2218 9.03233 15.2368 8.79853 16.7278 8.72853C18.223 8.66273 18.6976 8.64453 22.5014 8.64453" fill="#491700"/>
</svg>
