<svg width="18" height="19" viewBox="0 0 18 19" fill="none" xmlns="http://www.w3.org/2000/svg">
<path d="M9.71875 5.60938C9.71875 4.55525 10.4365 3.5 11.5469 3.5C12.6573 3.5 13.375 4.55525 13.375 5.60938C13.375 6.6635 12.6573 7.71875 11.5469 7.71875C10.4365 7.71875 9.71875 6.6635 9.71875 5.60938ZM2.82812 6.03125C1.71775 6.03125 1 7.0865 1 8.14062C1 9.19475 1.71775 10.25 2.82812 10.25C3.9385 10.25 4.65625 9.19475 4.65625 8.14062C4.65625 7.0865 3.9385 6.03125 2.82812 6.03125ZM15.4844 6.03125C14.374 6.03125 13.6562 7.0865 13.6562 8.14062C13.6562 9.19475 14.374 10.25 15.4844 10.25C16.5948 10.25 17.3125 9.19475 17.3125 8.14062C17.3125 7.0865 16.5948 6.03125 15.4844 6.03125ZM6.76562 3.5C5.65525 3.5 4.9375 4.55525 4.9375 5.60938C4.9375 6.6635 5.65525 7.71875 6.76562 7.71875C7.876 7.71875 8.59375 6.6635 8.59375 5.60938C8.59375 4.55525 7.876 3.5 6.76562 3.5ZM9.15625 9.125C7.66441 9.125 6.23367 9.71763 5.17877 10.7725C4.12388 11.8274 3.53125 13.2582 3.53125 14.75C3.53125 16.2102 4.89475 17 6.10187 17H12.2106C13.4178 17 14.7812 16.2102 14.7812 14.75C14.7812 13.2582 14.1886 11.8274 13.1337 10.7725C12.0788 9.71763 10.6481 9.125 9.15625 9.125Z" fill="#FF5817"/>
</svg>
