<svg width="96" height="80" viewBox="0 0 96 80" fill="none" xmlns="http://www.w3.org/2000/svg">
<path d="M34.3314 11.3704C35.1589 14.5909 35.5838 16.7379 35.7851 17.9232C35.8298 18.1468 35.6733 18.3928 35.4272 18.4152L32.0055 19.0414C31.7819 19.0861 31.5582 18.9296 31.4911 18.7059C31.2228 17.5877 30.7307 15.4631 29.9927 12.265C29.702 10.9455 29.0758 8.64198 28.6732 7.14357C28.6061 6.89756 28.7627 6.65156 29.0087 6.60683L32.4528 5.95826C32.6541 5.91353 32.8777 6.04772 32.9448 6.249C33.4816 7.90396 34.1972 10.7666 34.3314 11.3704ZM18.8777 11.6164C19.2131 10.0733 19.7275 7.99342 20.1301 6.45028C20.1971 6.22664 20.3984 6.09245 20.6221 6.11481L24.0214 6.65156C24.2898 6.69629 24.4464 6.94229 24.4016 7.1883C24.0885 8.53016 23.5294 10.9902 23.2387 12.3321C22.5678 15.5078 22.1428 17.6324 21.9416 18.8177C21.8968 19.0414 21.6732 19.1979 21.4272 19.1532L18.0054 18.6836C17.7594 18.6388 17.6029 18.4152 17.6476 18.1692C17.8042 16.9839 18.162 14.8593 18.8777 11.6164Z" fill="#491700"/>
<path d="M47.599 9.97959L49.5748 10.8162C49.7172 10.8696 49.7884 11.0298 49.7528 11.1722C49.2722 12.6674 48.4356 14.216 47.2074 15.8714C45.6944 17.8829 44.4661 18.8263 43.8431 19.2357C43.7363 19.3069 43.5939 19.2891 43.5049 19.2001L42.1165 17.9541C41.9741 17.8473 41.9919 17.6337 42.1165 17.5091C42.8107 16.9573 43.8965 15.9426 45.0535 14.2694C46.1038 12.7564 46.8514 11.0654 47.2074 10.1398C47.2786 9.97959 47.4388 9.90839 47.599 9.97959ZM40.2297 9.32099C40.3721 9.30319 40.4967 9.37439 40.5501 9.51679C40.6391 9.81939 40.7815 10.389 40.9239 11.2256C41.0485 11.902 41.1197 12.4182 41.1553 12.7386C41.1731 12.8988 41.0485 13.0412 40.8883 13.059L38.8057 13.3082C38.6455 13.326 38.5031 13.2192 38.4853 13.059C38.4319 12.7386 38.3607 12.2402 38.2717 11.5638C38.1827 10.9942 38.0581 10.3712 37.9513 9.94399C37.9157 9.78379 38.0403 9.60579 38.2005 9.58799L40.2297 9.32099ZM42.5259 12.0444C42.3657 12.0622 42.2233 11.9554 42.2055 11.813C42.1521 11.4748 42.0809 10.9586 41.9919 10.2822C41.9029 9.73039 41.7783 9.10738 41.6715 8.66238C41.6359 8.50218 41.7605 8.34198 41.9207 8.32418L43.9499 8.03937C44.0923 8.02157 44.2347 8.11057 44.2703 8.25298C44.3771 8.62678 44.5195 9.21419 44.6441 9.96179C44.7687 10.6382 44.8399 11.1544 44.8755 11.4926C44.8933 11.6528 44.7687 11.7952 44.6263 11.813L42.5259 12.0444Z" fill="#491700"/>
<path d="M61.1151 16.0674C62.1448 16.0674 63.9038 15.767 64.9978 15.5525C65.2338 15.5096 65.4483 15.6598 65.4912 15.8958L66.1347 18.7917C66.1991 19.0062 66.0704 19.2207 65.8559 19.2851C63.1959 20.1002 60.2141 19.9501 59.6349 19.8857C54.9371 19.4353 52.7705 17.4188 52.6203 13.3216C52.4916 10.0395 52.9206 6.39275 53.1995 4.63373C53.2424 4.44066 53.414 4.2905 53.6285 4.2905L56.6532 4.2476C56.9106 4.2476 57.1037 4.48357 57.0822 4.74098C56.8677 6.30694 56.5459 8.90257 56.5459 8.90257L59.3346 8.30193C59.9782 8.15177 61.5441 7.7871 62.252 7.61548C62.4236 7.57258 62.6167 7.65839 62.7025 7.83C63.5606 9.35305 64.9334 9.63192 65.577 9.67483C65.7701 9.67483 65.9202 9.82499 65.9631 10.018C65.9631 10.061 65.9631 10.1039 65.9846 10.1468C66.0275 10.3613 65.8773 10.5972 65.6628 10.6401C64.6331 10.8761 62.8741 11.2622 60.3428 11.82C59.5706 11.9916 56.3529 12.7424 56.3529 12.7424C56.3529 12.7424 55.838 16.0674 61.0722 16.0674H61.1151ZM66.4565 3.00341C67.7865 3.08922 68.8805 4.18325 68.9663 5.51324C69.0736 7.27226 67.5291 8.68806 65.7486 8.34483C64.6975 8.13032 63.8394 7.27226 63.6464 6.22114C63.2817 4.46211 64.7189 2.91761 66.4565 3.00341ZM65.8773 6.84323C66.7783 7.14355 67.5934 6.4142 67.4862 5.53469C67.4218 4.9984 66.9928 4.54792 66.4351 4.48357C65.5555 4.39776 64.8262 5.21292 65.1265 6.09243C65.2552 6.4571 65.5341 6.73597 65.8773 6.84323Z" fill="#491700"/>
<path d="M81.1441 13.4607C81.1441 13.6415 80.9962 13.7729 80.8155 13.7893C79.7968 13.7893 77.365 13.8551 75.5576 13.8551C73.0601 13.8551 71.1212 13.8222 69.9711 13.7893C69.7903 13.7893 69.6589 13.6415 69.6589 13.4607V10.9961C69.6589 10.8153 69.7903 10.6675 69.9711 10.6675C71.2034 10.6675 73.438 10.651 75.804 10.651C76.8063 10.6675 79.5832 10.7003 80.8155 10.7003C80.9962 10.7003 81.1441 10.8482 81.1441 11.0289V13.4607Z" fill="#491700"/>
<path d="M19.0079 39.3435C18.8961 39.1422 18.9631 38.8739 19.1644 38.7621C20.551 37.9346 21.96 36.5703 22.206 34.893C22.3402 34.0208 22.1165 33.171 21.5574 32.5224C19.5893 30.2412 15.4296 32.6119 15.4296 32.6119V41.4458C15.4296 41.6918 15.2283 41.8707 15.0047 41.8707H12.142C11.9184 41.8707 11.7171 41.6918 11.6947 41.4458L11.5158 36.8387C11.5158 36.8387 11.1356 37.1742 10.42 37.8004C10.2411 37.9793 9.95033 37.9569 9.79378 37.7557L8.38482 36.0783C8.25064 35.8994 8.25064 35.6534 8.40719 35.4969C9.32413 34.5352 12.2091 31.5384 12.2091 31.5384C12.2091 31.5384 10.174 31.516 9.25703 31.516C9.01103 31.516 8.80975 31.3147 8.80975 31.0687L8.78738 28.9888C8.78738 28.7652 8.9663 28.5639 9.18994 28.5416C10.0621 28.4745 11.6053 28.3403 11.6053 28.3403L11.7618 25.008C11.7842 24.762 11.9631 24.5831 12.2091 24.5831L15.0941 24.5607C15.3401 24.5607 15.5414 24.762 15.5414 25.008C15.519 26.0815 15.4967 27.9377 15.4967 27.9377C15.4967 27.9377 22.452 25.6342 25.6724 29.8611C27.2603 31.9857 27.3274 35.631 25.7843 38.1806C24.5095 40.3276 22.2731 41.6247 20.8417 42.0943C20.6405 42.1614 20.4168 42.072 20.305 41.8707L19.0079 39.3435Z" fill="#491700"/>
<path d="M40.1502 40.8199C39.3451 40.0596 39.278 39.1203 39.2109 38.2257C39.1438 37.2193 39.032 35.9893 37.7572 35.4525C36.6837 34.9829 35.23 36.0116 35.23 36.0116C35.23 36.0116 34.2684 39.5005 33.8211 41.2896C33.754 41.5132 33.508 41.6698 33.262 41.6027L30.3546 40.8647C30.1086 40.7976 29.9744 40.5516 30.0191 40.3279C30.377 38.8743 31.0703 36.0787 32.1214 32.4333C33.1949 28.7656 33.9776 26.4621 34.4249 25.2544C34.492 25.0307 34.7156 24.9189 34.9393 24.9636L37.9585 25.7688C38.2045 25.8359 38.3387 26.0819 38.2492 26.3279C37.9361 27.3343 37.3994 28.9669 36.8626 30.6442L36.5048 31.8071C36.5048 31.8071 38.7412 30.8231 40.5975 31.986C41.6933 32.657 42.0959 33.9094 42.409 35.05C42.7892 36.4589 43.2812 37.8008 45.1151 37.2417C45.3387 37.1522 45.6071 37.3087 45.6518 37.5548L46.4569 40.5963C46.5016 40.8199 46.3898 41.0436 46.1885 41.1107C44.9809 41.6027 41.9393 42.5196 40.1502 40.8199Z" fill="#491700"/>
<path d="M60.3127 39.3435C60.2008 39.1422 60.2679 38.8739 60.4692 38.7621C61.8558 37.9346 63.2647 36.5703 63.5108 34.893C63.6449 34.0208 63.4213 33.171 62.8622 32.5224C60.8941 30.2412 56.7344 32.6119 56.7344 32.6119V41.4458C56.7344 41.6918 56.5331 41.8707 56.3094 41.8707H53.4468C53.2232 41.8707 53.0219 41.6918 52.9995 41.4458L52.8206 36.8387C52.8206 36.8387 52.4404 37.1742 51.7248 37.8004C51.5458 37.9793 51.2551 37.9569 51.0986 37.7557L49.6896 36.0783C49.5554 35.8994 49.5554 35.6534 49.712 35.4969C50.6289 34.5352 53.5139 31.5384 53.5139 31.5384C53.5139 31.5384 51.4787 31.516 50.5618 31.516C50.3158 31.516 50.1145 31.3147 50.1145 31.0687L50.0922 28.9888C50.0922 28.7652 50.2711 28.5639 50.4947 28.5416C51.3669 28.4745 52.9101 28.3403 52.9101 28.3403L53.0666 25.008C53.089 24.762 53.2679 24.5831 53.5139 24.5831L56.3989 24.5607C56.6449 24.5607 56.8462 24.762 56.8462 25.008C56.8238 26.0815 56.8015 27.9377 56.8015 27.9377C56.8015 27.9377 63.7568 25.6342 66.9772 29.8611C68.5651 31.9857 68.6322 35.6311 67.089 38.1806C65.8143 40.3276 63.5778 41.6247 62.1465 42.0943C61.9453 42.1614 61.7216 42.072 61.6098 41.8707L60.3127 39.3435Z" fill="#491700"/>
<path d="M81.0002 40.8199C80.195 40.0596 80.1279 39.1203 80.0609 38.2257C79.9938 37.2193 79.8819 35.9893 78.6072 35.4525C77.5337 34.9829 76.08 36.0116 76.08 36.0116C76.08 36.0116 75.1183 39.5005 74.6711 41.2896C74.604 41.5132 74.358 41.6698 74.1119 41.6027L71.2046 40.8647C70.9586 40.7976 70.8244 40.5516 70.8691 40.3279C71.2269 38.8743 71.9202 36.0787 72.9714 32.4333C74.0449 28.7656 74.8276 26.4621 75.2749 25.2544C75.342 25.0307 75.5656 24.9189 75.7893 24.9636L78.8085 25.7688C79.0545 25.8359 79.1886 26.0819 79.0992 26.3279C78.7861 27.3343 78.2493 28.9669 77.7126 30.6442L77.3548 31.8071C77.3548 31.8071 79.5912 30.8231 81.4474 31.986C82.5433 32.657 82.9459 33.9094 83.259 35.05C83.6391 36.4589 84.1312 37.8008 85.965 37.2417C86.1887 37.1522 86.457 37.3087 86.5018 37.5548L87.3069 40.5963C87.3516 40.8199 87.2398 41.0436 87.0385 41.1107C85.8308 41.6027 82.7893 42.5196 81.0002 40.8199Z" fill="#491700"/>
<path d="M13.8808 60.867C14.9543 60.867 16.7881 60.5539 17.9287 60.3303C18.1747 60.2855 18.3984 60.4421 18.4431 60.6881L19.114 63.7073C19.1811 63.9309 19.0469 64.1546 18.8233 64.2217C16.0501 65.0715 12.9415 64.915 12.3376 64.8479C7.43985 64.3782 5.18105 62.276 5.0245 58.0044C4.89032 54.5826 5.33761 50.7807 5.62834 48.9468C5.67307 48.7456 5.85198 48.589 6.07563 48.589L9.229 48.5443C9.49737 48.5443 9.69865 48.7903 9.67628 49.0587C9.45264 50.6913 9.11717 53.3973 9.11717 53.3973L12.0245 52.7711C12.6955 52.6146 14.3281 52.2344 15.0661 52.0555C15.245 52.0108 15.4463 52.1002 15.5357 52.2791C16.4303 53.867 17.8616 54.1577 18.5325 54.2025C18.7338 54.2025 18.8904 54.359 18.9351 54.5603C18.9351 54.605 18.9351 54.6497 18.9575 54.6945C19.0022 54.9181 18.8456 55.1641 18.622 55.2088C17.5485 55.4549 15.7146 55.8574 13.0757 56.4389C12.2705 56.6178 8.9159 57.4006 8.9159 57.4006C8.9159 57.4006 8.37915 60.867 13.836 60.867H13.8808ZM19.4495 47.2471C20.8361 47.3366 21.9767 48.4772 22.0661 49.8638C22.1779 51.6976 20.5677 53.1737 18.7115 52.8159C17.6156 52.5922 16.721 51.6976 16.5198 50.6018C16.1396 48.7679 17.638 47.1577 19.4495 47.2471ZM18.8457 51.2504C19.785 51.5635 20.6348 50.8031 20.523 49.8861C20.4559 49.327 20.0086 48.8574 19.4271 48.7903C18.5102 48.7008 17.7498 49.5507 18.0629 50.4676C18.1971 50.8478 18.4878 51.1385 18.8457 51.2504Z" fill="#491700"/>
<path d="M31.9364 63.4609C31.6904 63.3267 31.6233 63.036 31.7575 62.8124C32.4284 61.7389 33.4572 59.7261 34.3294 56.774C34.9108 54.8283 35.045 52.3235 35.045 52.3235H29.6105C29.6105 52.3235 28.537 56.1254 28.0674 57.9817C28.0226 58.2277 27.7766 58.3619 27.5306 58.2948L24.3325 57.5567C24.1089 57.4897 23.9523 57.266 24.0194 57.02C24.3549 55.5887 25.3613 51.3618 25.9875 49.0807C26.0546 48.9018 26.2111 48.7676 26.4124 48.7676C28.3357 48.7676 37.3038 48.857 39.3837 48.857C39.6297 48.857 39.831 49.0583 39.831 49.3043C39.8757 52.7708 39.2942 56.1702 38.1313 59.4353C37.2367 61.9402 36.0961 63.7964 35.3805 64.7804C35.2463 64.937 35.0227 65.0041 34.8214 64.9146L31.9364 63.4609Z" fill="#491700"/>
<path d="M49.349 59.4005C50.1541 59.4005 55.2756 59.4228 57.1318 59.4452C57.3778 59.4452 57.5791 59.6465 57.5567 59.8925L57.5344 63.359C57.5344 63.605 57.3554 63.8062 57.1094 63.8062C55.9465 63.8733 54.0903 63.9181 49.6845 63.9181C45.9944 63.9181 43.8698 63.8733 42.7292 63.8286C42.5055 63.8062 42.3043 63.6273 42.3043 63.3813V59.9372C42.3043 59.7136 42.5055 59.5123 42.7515 59.4899C45.0551 59.4452 47.3139 59.4228 49.349 59.4005ZM49.5279 54.033C48.0072 54.033 45.2116 54.033 44.0934 54.033C43.8474 54.033 43.6461 53.8541 43.6461 53.6081L43.6238 50.0969C43.6014 49.8733 43.8027 49.672 44.0263 49.6496C45.2116 49.6049 47.135 49.5602 49.6174 49.5154C51.1605 49.4931 54.4928 49.5154 55.7676 49.5378C56.0136 49.5378 56.2149 49.7391 56.2149 49.9851L56.1925 53.5634C56.1925 53.8094 55.9912 54.0107 55.7452 54.0107C54.4705 54.0107 52.0327 54.033 49.5279 54.033Z" fill="#491700"/>
<path d="M69.9315 55.395L72.0087 56.2745C72.1584 56.3307 72.2332 56.4991 72.1958 56.6488C71.6906 58.2207 70.8111 59.8487 69.5199 61.589C67.9293 63.7036 66.6381 64.6954 65.9831 65.1258C65.8708 65.2006 65.7211 65.1819 65.6276 65.0883L64.1679 63.7784C64.0182 63.6662 64.037 63.4416 64.1679 63.3106C64.8977 62.7305 66.0392 61.6639 67.2556 59.9048C68.3597 58.3142 69.1456 56.5365 69.5199 55.5634C69.5947 55.395 69.7631 55.3202 69.9315 55.395ZM62.1844 54.7026C62.3341 54.6839 62.4651 54.7588 62.5212 54.9085C62.6148 55.2266 62.7645 55.8254 62.9142 56.7049C63.0452 57.416 63.12 57.9587 63.1574 58.2955C63.1762 58.4639 63.0452 58.6136 62.8767 58.6324L60.6873 58.8943C60.5189 58.9131 60.3692 58.8008 60.3505 58.6324C60.2944 58.2955 60.2195 57.7716 60.1259 57.0605C60.0324 56.4616 59.9014 55.8067 59.7891 55.3576C59.7517 55.1892 59.8827 55.002 60.0511 54.9833L62.1844 54.7026ZM64.5983 57.5657C64.4299 57.5844 64.2802 57.4722 64.2615 57.3224C64.2054 56.9669 64.1305 56.4242 64.037 55.7131C63.9434 55.133 63.8124 54.4781 63.7001 54.0102C63.6627 53.8418 63.7937 53.6734 63.9621 53.6547L66.0954 53.3553C66.2451 53.3366 66.3948 53.4301 66.4322 53.5798C66.5445 53.9728 66.6942 54.5903 66.8252 55.3763C66.9562 56.0874 67.031 56.6301 67.0685 56.9856C67.0872 57.154 66.9562 57.3037 66.8065 57.3224L64.5983 57.5657Z" fill="#491700"/>
<path d="M82.8987 63.4609C82.6527 63.3267 82.5856 63.036 82.7198 62.8124C83.3907 61.7389 84.4195 59.7261 85.2917 56.774C85.8732 54.8283 86.0073 52.3235 86.0073 52.3235H80.5728C80.5728 52.3235 79.4993 56.1254 79.0297 57.9817C78.9849 58.2277 78.7389 58.3619 78.4929 58.2948L75.2948 57.5567C75.0712 57.4897 74.9146 57.266 74.9817 57.02C75.3172 55.5887 76.3236 51.3618 76.9498 49.0807C77.0169 48.9018 77.1734 48.7676 77.3747 48.7676C79.298 48.7676 88.2661 48.857 90.346 48.857C90.592 48.857 90.7933 49.0583 90.7933 49.3043C90.838 52.7708 90.2566 56.1702 89.0936 59.4353C88.199 61.9402 87.0585 63.7964 86.3428 64.7804C86.2086 64.937 85.985 65.0041 85.7837 64.9146L82.8987 63.4609Z" fill="#491700"/>
<path d="M33.7615 77.5884C33.6524 77.5884 33.5929 77.519 33.5929 77.4099V76.9043C33.5929 76.815 33.6227 76.7555 33.6722 76.696L35.7345 74.3958C36.8251 73.1763 37.1424 72.631 37.1424 72.0461C37.1424 71.5702 36.8053 71.2925 36.2897 71.2925C35.8138 71.2925 35.447 71.5702 35.2288 72.1551C35.1892 72.2642 35.1198 72.3038 35.0206 72.2741L33.5433 71.8676C33.4343 71.8478 33.3946 71.7685 33.4244 71.6594C33.8309 70.2416 34.9413 69.3592 36.4285 69.3592C38.0843 69.3592 39.2145 70.3507 39.2145 71.818C39.2145 72.9582 38.7485 73.8307 37.073 75.3873L36.7755 75.6649H39.2542C39.3633 75.6649 39.4227 75.7343 39.4227 75.8335V77.4099C39.4227 77.519 39.3633 77.5884 39.2542 77.5884H33.7615ZM44.1457 77.747C42.1033 77.747 40.8838 76.1805 40.8838 73.5531C40.8838 70.9257 42.1033 69.3592 44.1457 69.3592C46.2079 69.3592 47.4175 70.9257 47.4175 73.5531C47.4175 76.1805 46.2079 77.747 44.1457 77.747ZM42.9361 73.5531C42.9361 75.1494 43.4318 75.7641 44.1457 75.7641C44.8695 75.7641 45.3652 75.1494 45.3652 73.5531C45.3652 71.9568 44.8695 71.3421 44.1457 71.3421C43.4318 71.3421 42.9361 71.9568 42.9361 73.5531ZM49.1311 77.5884C49.0221 77.5884 48.9626 77.519 48.9626 77.4099V76.9043C48.9626 76.815 48.9923 76.7555 49.0419 76.696L51.1042 74.3958C52.1948 73.1763 52.5121 72.631 52.5121 72.0461C52.5121 71.5702 52.175 71.2925 51.6594 71.2925C51.1835 71.2925 50.8166 71.5702 50.5985 72.1551C50.5589 72.2642 50.4895 72.3038 50.3903 72.2741L48.913 71.8676C48.804 71.8478 48.7643 71.7685 48.7941 71.6594C49.2006 70.2416 50.311 69.3592 51.7982 69.3592C53.4539 69.3592 54.5842 70.3507 54.5842 71.818C54.5842 72.9582 54.1182 73.8307 52.4427 75.3873L52.1452 75.6649H54.6239C54.7329 75.6649 54.7924 75.7343 54.7924 75.8335V77.4099C54.7924 77.519 54.7329 77.5884 54.6239 77.5884H49.1311ZM59.3171 77.747C57.82 77.747 56.6996 76.9538 56.2435 75.5856C56.2336 75.5559 56.2237 75.5261 56.2237 75.5063C56.2237 75.427 56.2832 75.3873 56.3625 75.3675L57.7803 75.0006C57.8001 74.9907 57.82 74.9907 57.8398 74.9907C57.9092 74.9907 57.9588 75.0304 57.9984 75.0998C58.2166 75.5955 58.633 75.8632 59.1981 75.8632C59.8624 75.8632 60.2689 75.4964 60.2689 74.9213C60.2689 74.3264 59.8426 73.9398 59.1684 73.9398C58.7222 73.9398 58.3752 74.0687 57.7902 74.4355C57.7506 74.4553 57.7109 74.4652 57.6712 74.4652C57.6316 74.4652 57.5919 74.4553 57.5523 74.4355L56.6798 73.9893C56.6005 73.9497 56.5608 73.8803 56.5707 73.7811L56.9177 69.6864C56.9376 69.5575 56.9971 69.5178 57.0962 69.5178H61.7264C61.8255 69.5178 61.8949 69.5872 61.8949 69.6963V71.2231C61.8949 71.3322 61.8255 71.4016 61.7264 71.4016H58.4743L58.3157 72.8293C58.7519 72.522 59.2179 72.3336 59.8326 72.3336C61.3099 72.3336 62.351 73.3746 62.351 74.9312C62.351 76.587 61.1017 77.747 59.3171 77.747Z" fill="#491700"/>
</svg>
