<svg width="72" height="72" viewBox="0 0 72 72" fill="none" xmlns="http://www.w3.org/2000/svg">
<g filter="url(#filter0_d_894_686)">
<circle cx="35.7274" cy="32.6893" r="30.7664" fill="white"/>
<path fill-rule="evenodd" clip-rule="evenodd" d="M4 32C4 23.5131 7.37142 15.3737 13.3726 9.37258C19.3737 3.37142 27.5131 0 36 0C44.4869 0 52.6263 3.37142 58.6274 9.37258C64.6286 15.3737 68 23.5131 68 32C68 40.4869 64.6286 48.6263 58.6274 54.6274C52.6263 60.6286 44.4869 64 36 64C27.5131 64 19.3737 60.6286 13.3726 54.6274C7.37142 48.6263 4 40.4869 4 32ZM36 4.59007C28.7304 4.59007 21.7586 7.47789 16.6182 12.6182C11.4779 17.7586 8.59007 24.7304 8.59007 32C8.59007 39.2696 11.4779 46.2414 16.6182 51.3818C21.7586 56.5221 28.7304 59.4099 36 59.4099C43.2696 59.4099 50.2414 56.5221 55.3818 51.3818C60.5221 46.2414 63.4099 39.2696 63.4099 32C63.4099 24.7304 60.5221 17.7586 55.3818 12.6182C50.2414 7.47789 43.2696 4.59007 36 4.59007ZM47.3737 20.6311C47.8266 21.0842 48.081 21.6985 48.081 22.3391C48.081 22.9797 47.8266 23.5941 47.3737 24.0471L39.416 32L47.3737 39.9529C47.8273 40.4065 48.0822 41.0218 48.0822 41.6633C48.0822 42.3048 47.8273 42.9201 47.3737 43.3737C46.9201 43.8273 46.3048 44.0822 45.6633 44.0822C45.0218 44.0822 44.4065 43.8273 43.9529 43.3737L36 35.416L28.0471 43.3737C27.8225 43.5983 27.5558 43.7765 27.2624 43.898C26.9689 44.0196 26.6544 44.0822 26.3367 44.0822C26.0191 44.0822 25.7045 44.0196 25.411 43.898C25.1176 43.7765 24.8509 43.5983 24.6263 43.3737C24.4017 43.1491 24.2235 42.8824 24.102 42.589C23.9804 42.2955 23.9178 41.9809 23.9178 41.6633C23.9178 41.3456 23.9804 41.0311 24.102 40.7376C24.2235 40.4442 24.4017 40.1775 24.6263 39.9529L32.584 32L24.6263 24.0471C24.1727 23.5935 23.9178 22.9782 23.9178 22.3367C23.9178 21.6952 24.1727 21.0799 24.6263 20.6263C25.0799 20.1727 25.6952 19.9178 26.3367 19.9178C26.9782 19.9178 27.5935 20.1727 28.0471 20.6263L36 28.584L43.9529 20.6263C44.1773 20.4013 44.4439 20.2228 44.7374 20.101C45.0309 19.9793 45.3455 19.9166 45.6633 19.9166C45.9811 19.9166 46.2957 19.9793 46.5892 20.101C46.8827 20.2228 47.1493 20.4062 47.3737 20.6311Z" fill="#491700"/>
</g>
<defs>
<filter id="filter0_d_894_686" x="0" y="0" width="72" height="72" filterUnits="userSpaceOnUse" color-interpolation-filters="sRGB">
<feFlood flood-opacity="0" result="BackgroundImageFix"/>
<feColorMatrix in="SourceAlpha" type="matrix" values="0 0 0 0 0 0 0 0 0 0 0 0 0 0 0 0 0 0 127 0" result="hardAlpha"/>
<feOffset dy="4"/>
<feGaussianBlur stdDeviation="2"/>
<feComposite in2="hardAlpha" operator="out"/>
<feColorMatrix type="matrix" values="0 0 0 0 0 0 0 0 0 0 0 0 0 0 0 0 0 0 0.25 0"/>
<feBlend mode="normal" in2="BackgroundImageFix" result="effect1_dropShadow_894_686"/>
<feBlend mode="normal" in="SourceGraphic" in2="effect1_dropShadow_894_686" result="shape"/>
</filter>
</defs>
</svg>
