<svg width="36" height="36" viewBox="0 0 36 36" fill="none" xmlns="http://www.w3.org/2000/svg">
<g clip-path="url(#clip0_596_872)">
<circle cx="18" cy="18" r="18" fill="white"/>
<circle cx="18" cy="18" r="17" stroke="#59383B" stroke-width="2"/>
<path fill-rule="evenodd" clip-rule="evenodd" d="M10.4556 9.37741C9.68108 10.1416 9.06538 11.0515 8.64396 12.0546C8.22253 13.0577 8.00369 14.1343 8.00005 15.2224C7.9964 16.3104 8.20802 17.3884 8.62272 18.3944C9.03741 19.4003 9.647 20.3143 10.4164 21.0836C11.1857 21.853 12.0997 22.4626 13.1056 22.8773C14.1116 23.292 15.1896 23.5036 16.2776 23.5C17.3657 23.4963 18.4423 23.2775 19.4454 22.856C20.4485 22.4346 21.3584 21.8189 22.1226 21.0444C23.6526 19.4937 24.5073 17.4008 24.5 15.2224C24.4927 13.0439 23.624 10.9568 22.0836 9.41637C20.5432 7.87596 18.4561 7.00734 16.2776 7.00005C14.0992 6.99275 12.0063 7.84737 10.4556 9.37741ZM21.0621 19.9839C20.4381 20.6231 19.6934 21.132 18.8712 21.4812C18.049 21.8304 17.1657 22.0129 16.2725 22.0182C15.3792 22.0235 14.4938 21.8515 13.6676 21.5121C12.8413 21.1727 12.0906 20.6726 11.459 20.041C10.8275 19.4093 10.3275 18.6585 9.98825 17.8322C9.64896 17.0059 9.47706 16.1204 9.48251 15.2272C9.48795 14.334 9.67064 13.4507 10.02 12.6286C10.3693 11.8064 10.8784 11.0618 11.5176 10.4379C12.7835 9.17204 14.5004 8.46087 16.2906 8.46087C18.0808 8.46087 19.7977 9.17204 21.0636 10.4379C22.3295 11.7038 23.0406 13.4207 23.0406 15.2109C23.0406 17.0011 22.328 18.718 21.0621 19.9839Z" fill="#59383B"/>
<path d="M20.6817 22.7861C20.4085 22.5032 20.2573 22.1243 20.2607 21.731C20.2641 21.3377 20.4218 20.9615 20.7 20.6834C20.9781 20.4052 21.3543 20.2475 21.7476 20.2441C22.1409 20.2407 22.5198 20.3918 22.8027 20.6651L28.4862 26.3486C28.7594 26.6315 28.9106 27.0104 28.9072 27.4037C28.9038 27.797 28.746 28.1732 28.4679 28.4513C28.1898 28.7294 27.8136 28.8872 27.4203 28.8906C27.027 28.894 26.6481 28.7428 26.3652 28.4696L20.6817 22.7861ZM13.4922 16.1006C13.2933 16.1006 13.1025 16.0216 12.9619 15.8809C12.8212 15.7403 12.7422 15.5495 12.7422 15.3506C12.7422 15.1517 12.8212 14.9609 12.9619 14.8203C13.1025 14.6796 13.2933 14.6006 13.4922 14.6006H19.4922C19.6911 14.6006 19.8819 14.6796 20.0225 14.8203C20.1632 14.9609 20.2422 15.1517 20.2422 15.3506C20.2422 15.5495 20.1632 15.7403 20.0225 15.8809C19.8819 16.0216 19.6911 16.1006 19.4922 16.1006H13.4922Z" fill="#59383B"/>
<path d="M15.7422 12.3506C15.7422 12.1517 15.8212 11.9609 15.9619 11.8203C16.1025 11.6796 16.2933 11.6006 16.4922 11.6006C16.6911 11.6006 16.8819 11.6796 17.0225 11.8203C17.1632 11.9609 17.2422 12.1517 17.2422 12.3506V18.3506C17.2422 18.5495 17.1632 18.7403 17.0225 18.8809C16.8819 19.0216 16.6911 19.1006 16.4922 19.1006C16.2933 19.1006 16.1025 19.0216 15.9619 18.8809C15.8212 18.7403 15.7422 18.5495 15.7422 18.3506V12.3506Z" fill="#59383B"/>
</g>
<defs>
<clipPath id="clip0_596_872">
<rect width="36" height="36" fill="white"/>
</clipPath>
</defs>
</svg>
