<svg width="146" height="146" viewBox="0 0 146 146" fill="none" xmlns="http://www.w3.org/2000/svg">
<path fill-rule="evenodd" clip-rule="evenodd" d="M46.0324 9.7109C44.8816 11.2948 43.9569 12.9739 43.2522 14.7098C41.4337 14.2597 39.532 14.0209 37.5745 14.0209C24.5661 14.0209 14.0207 24.5663 14.0207 37.5748C14.0207 39.5327 14.2596 41.4348 14.7098 43.2536C12.9739 43.9584 11.2948 44.8831 9.7109 46.0338C-0.813126 53.68 -3.1461 68.4098 4.50005 78.9338C5.65075 80.5176 6.96189 81.9159 8.39498 83.1226C7.4047 84.7133 6.58967 86.4486 5.98461 88.3107C1.96479 100.682 8.73535 113.97 21.1071 117.99C22.9694 118.595 24.8524 118.956 26.7215 119.09C26.8554 120.959 27.216 122.841 27.8209 124.703C31.8408 137.075 45.1287 143.846 57.5005 139.826C59.3627 139.221 61.098 138.406 62.6887 137.415C63.8955 138.849 65.2939 140.16 66.8779 141.311C77.402 148.957 92.1318 146.624 99.778 136.1C100.929 134.516 101.853 132.837 102.558 131.101C104.377 131.551 106.278 131.79 108.236 131.79C121.244 131.79 131.79 121.245 131.79 108.236C131.79 106.278 131.551 104.376 131.101 102.557C132.836 101.853 134.516 100.928 136.099 99.7771C146.623 92.1309 148.956 77.4011 141.31 66.8771C140.16 65.2933 138.848 63.895 137.415 62.6883C138.406 61.0976 139.221 59.3624 139.826 57.5002C143.846 45.1285 137.075 31.8405 124.703 27.8207C122.841 27.2156 120.958 26.855 119.089 26.7212C118.955 24.8524 118.594 22.9696 117.989 21.1077C113.97 8.73593 100.682 1.96537 88.3099 5.98519C86.4477 6.59025 84.7124 7.40529 83.1217 8.39559C81.9149 6.96226 80.5164 5.65091 78.9324 4.50005C68.4084 -3.1461 53.6785 -0.813126 46.0324 9.7109Z" fill="#FF6B35"/>
</svg>
