<svg width="30" height="31" viewBox="0 0 30 31" fill="none" xmlns="http://www.w3.org/2000/svg">
<path d="M16.0702 24.5762L23.5724 17.074C23.709 16.9313 23.816 16.7631 23.8874 16.5789C24.0375 16.2136 24.0375 15.8039 23.8874 15.4386C23.816 15.2544 23.709 15.0861 23.5724 14.9434L16.0702 7.44126C15.9303 7.30137 15.7642 7.19039 15.5814 7.11468C15.3987 7.03897 15.2027 7 15.0049 7C14.6053 7 14.2221 7.15873 13.9396 7.44126C13.6571 7.7238 13.4983 8.107 13.4983 8.50657C13.4983 8.90614 13.6571 9.28934 13.9396 9.57187L18.891 14.5083H7.50275C7.10481 14.5083 6.72317 14.6664 6.44179 14.9478C6.1604 15.2291 6.00232 15.6108 6.00232 16.0087C6.00232 16.4067 6.1604 16.7883 6.44179 17.0697C6.72317 17.3511 7.10481 17.5092 7.50275 17.5092H18.891L13.9396 22.4456C13.799 22.5851 13.6873 22.751 13.6112 22.9338C13.535 23.1167 13.4958 23.3128 13.4958 23.5109C13.4958 23.7089 13.535 23.9051 13.6112 24.0879C13.6873 24.2707 13.799 24.4367 13.9396 24.5762C14.0791 24.7168 14.245 24.8284 14.4279 24.9046C14.6107 24.9808 14.8068 25.02 15.0049 25.02C15.203 25.02 15.3991 24.9808 15.5819 24.9046C15.7648 24.8284 15.9307 24.7168 16.0702 24.5762Z" fill="#491700"/>
</svg>
