<svg width="443" height="81" viewBox="0 0 443 81" fill="none" xmlns="http://www.w3.org/2000/svg">
<mask id="path-1-inside-1_949_1057" fill="white">
<path fill-rule="evenodd" clip-rule="evenodd" d="M12.8949 45.5201C9.06017 44.7109 5.51399 41.7068 3.08194 39.6465C2.19903 38.8985 1.46296 38.275 0.913208 37.926C5.14116 38.9574 9.74531 37.8013 12.8759 36.2895C15.1269 16.3322 32.0631 0.822266 52.6219 0.822266H402.622C424.713 0.822266 442.622 18.7309 442.622 40.8223C442.622 62.9137 424.713 80.8223 402.622 80.8223H52.6219C32.1198 80.8223 15.2203 65.3977 12.8949 45.5201Z"/>
</mask>
<path fill-rule="evenodd" clip-rule="evenodd" d="M12.8949 45.5201C9.06017 44.7109 5.51399 41.7068 3.08194 39.6465C2.19903 38.8985 1.46296 38.275 0.913208 37.926C5.14116 38.9574 9.74531 37.8013 12.8759 36.2895C15.1269 16.3322 32.0631 0.822266 52.6219 0.822266H402.622C424.713 0.822266 442.622 18.7309 442.622 40.8223C442.622 62.9137 424.713 80.8223 402.622 80.8223H52.6219C32.1198 80.8223 15.2203 65.3977 12.8949 45.5201Z" fill="white"/>
<path d="M12.8949 45.5201L14.8813 45.2877C14.7815 44.4346 14.1482 43.7405 13.3078 43.5632L12.8949 45.5201ZM3.08194 39.6465L4.3747 38.1204H4.3747L3.08194 39.6465ZM0.913208 37.926L1.38723 35.983C0.435961 35.7509 -0.543455 36.2417 -0.926986 37.1426C-1.31052 38.0435 -0.985373 39.0897 -0.158721 39.6145L0.913208 37.926ZM12.8759 36.2895L13.7457 38.0904C14.3643 37.7917 14.7863 37.1963 14.8633 36.5136L12.8759 36.2895ZM13.3078 43.5632C10.058 42.8774 6.89947 40.2593 4.3747 38.1204L1.78917 41.1725C4.12851 43.1543 8.06235 46.5444 12.4819 47.477L13.3078 43.5632ZM4.3747 38.1204C3.54288 37.4158 2.68018 36.6787 1.98514 36.2375L-0.158721 39.6145C0.245737 39.8712 0.855184 40.3813 1.78917 41.1725L4.3747 38.1204ZM0.439188 39.869C5.27309 41.0483 10.368 39.7216 13.7457 38.0904L12.0062 34.4885C9.12262 35.881 5.00923 36.8666 1.38723 35.983L0.439188 39.869ZM14.8633 36.5136C17.0015 17.5564 33.0924 2.82227 52.6219 2.82227V-1.17773C31.0338 -1.17773 13.2523 15.1081 10.8885 36.0653L14.8633 36.5136ZM52.6219 2.82227H402.622V-1.17773H52.6219V2.82227ZM402.622 2.82227C423.609 2.82227 440.622 19.8354 440.622 40.8223H444.622C444.622 17.6263 425.818 -1.17773 402.622 -1.17773V2.82227ZM440.622 40.8223C440.622 61.8091 423.609 78.8223 402.622 78.8223V82.8223C425.818 82.8223 444.622 64.0182 444.622 40.8223H440.622ZM402.622 78.8223H52.6219V82.8223H402.622V78.8223ZM52.6219 78.8223C33.1463 78.8223 17.0902 64.1693 14.8813 45.2877L10.9084 45.7525C13.3504 66.6261 31.0933 82.8223 52.6219 82.8223V78.8223Z" fill="#491700" mask="url(#path-1-inside-1_949_1057)"/>
</svg>
